<?xml version="1.0" encoding="UTF-8"?>
<svg width="1280px" height="720px" viewBox="0 0 1280 720" version="1.1" xmlns="http://www.w3.org/2000/svg" xmlns:xlink="http://www.w3.org/1999/xlink">
    <!-- Generator: Sketch 51.3 (57544) - http://www.bohemiancoding.com/sketch -->
    <title>Untitled 9</title>
    <desc>Created with Sketch.</desc>
    <defs>
        <rect id="path-1" x="0" y="0" width="277" height="283"></rect>
        <path d="M226.384,462.48 C225.471995,461.327994 224.236008,460.476003 222.676,459.924 C221.115992,459.371997 219.640007,459.096 218.248,459.096 C217.431996,459.096 216.592004,459.191999 215.728,459.384 C214.863996,459.576001 214.048004,459.875998 213.28,460.284 C212.511996,460.692002 211.888002,461.231997 211.408,461.904 C210.927998,462.576003 210.688,463.391995 210.688,464.352 C210.688,465.888008 211.263994,467.063996 212.416,467.88 C213.568006,468.696004 215.019991,469.391997 216.772,469.968 C218.524009,470.544003 220.40799,471.119997 222.424,471.696 C224.44001,472.272003 226.323991,473.087995 228.076,474.144 C229.828009,475.200005 231.279994,476.615991 232.432,478.392 C233.584006,480.168009 234.16,482.543985 234.16,485.52 C234.16,488.352014 233.632005,490.823989 232.576,492.936 C231.519995,495.048011 230.092009,496.799993 228.292,498.192 C226.491991,499.584007 224.404012,500.615997 222.028,501.288 C219.651988,501.960003 217.144013,502.296 214.504,502.296 C211.191983,502.296 208.120014,501.792005 205.288,500.784 C202.455986,499.775995 199.816012,498.144011 197.368,495.888 L205.36,487.104 C206.512006,488.640008 207.963991,489.827996 209.716,490.668 C211.468009,491.508004 213.279991,491.928 215.152,491.928 C216.064005,491.928 216.987995,491.820001 217.924,491.604 C218.860005,491.387999 219.699996,491.064002 220.444,490.632 C221.188004,490.199998 221.787998,489.648003 222.244,488.976 C222.700002,488.303997 222.928,487.512005 222.928,486.6 C222.928,485.063992 222.340006,483.852004 221.164,482.964 C219.987994,482.075996 218.512009,481.320003 216.736,480.696 C214.959991,480.071997 213.04001,479.448003 210.976,478.824 C208.91199,478.199997 206.992009,477.360005 205.216,476.304 C203.439991,475.247995 201.964006,473.856009 200.788,472.128 C199.611994,470.399991 199.024,468.120014 199.024,465.288 C199.024,462.551986 199.563995,460.15201 200.644,458.088 C201.724005,456.02399 203.163991,454.296007 204.964,452.904 C206.764009,451.511993 208.839988,450.468003 211.192,449.772 C213.544012,449.075997 215.967988,448.728 218.464,448.728 C221.344014,448.728 224.127987,449.135996 226.816,449.952 C229.504013,450.768004 231.927989,452.13599 234.088,454.056 L226.384,462.48 Z M245.012,450.024 L263.948,450.024 C266.588013,450.024 269.083988,450.263998 271.436,450.744 C273.788012,451.224002 275.839991,452.051994 277.592,453.228 C279.344009,454.404006 280.735995,455.98799 281.768,457.98 C282.800005,459.97201 283.316,462.479985 283.316,465.504 C283.316,468.480015 282.836005,470.97599 281.876,472.992 C280.915995,475.00801 279.596008,476.615994 277.916,477.816 C276.235992,479.016006 274.244012,479.867997 271.94,480.372 C269.635988,480.876003 267.140013,481.128 264.452,481.128 L256.244,481.128 L256.244,501 L245.012,501 L245.012,450.024 Z M256.244,471.624 L263.732,471.624 C264.740005,471.624 265.711995,471.528001 266.648,471.336 C267.584005,471.143999 268.423996,470.820002 269.168,470.364 C269.912004,469.907998 270.511998,469.284004 270.968,468.492 C271.424002,467.699996 271.652,466.704006 271.652,465.504 C271.652,464.207994 271.352003,463.164004 270.752,462.372 C270.151997,461.579996 269.384005,460.968002 268.448,460.536 C267.511995,460.103998 266.468006,459.828001 265.316,459.708 C264.163994,459.587999 263.060005,459.528 262.004,459.528 L256.244,459.528 L256.244,471.624 Z M292.872,450.024 L312.6,450.024 C315.192013,450.024 317.651988,450.275997 319.98,450.78 C322.308012,451.284003 324.347991,452.123994 326.1,453.3 C327.852009,454.476006 329.243995,456.05999 330.276,458.052 C331.308005,460.04401 331.824,462.527985 331.824,465.504 C331.824,469.104018 330.888009,472.163987 329.016,474.684 C327.143991,477.204013 324.408018,478.799997 320.808,479.472 L333.768,501 L320.304,501 L309.648,480.624 L304.104,480.624 L304.104,501 L292.872,501 L292.872,450.024 Z M304.104,471.12 L310.728,471.12 C311.736005,471.12 312.803994,471.084 313.932,471.012 C315.060006,470.94 316.079995,470.724002 316.992,470.364 C317.904005,470.003998 318.659997,469.440004 319.26,468.672 C319.860003,467.903996 320.16,466.824007 320.16,465.432 C320.16,464.135994 319.896003,463.104004 319.368,462.336 C318.839997,461.567996 318.168004,460.980002 317.352,460.572 C316.535996,460.163998 315.600005,459.888001 314.544,459.744 C313.487995,459.599999 312.456005,459.528 311.448,459.528 L304.104,459.528 L304.104,471.12 Z M341.884,450.024 L353.116,450.024 L353.116,501 L341.884,501 L341.884,450.024 Z M375.704,459.96 L361.16,459.96 L361.16,450.024 L401.48,450.024 L401.48,459.96 L386.936,459.96 L386.936,501 L375.704,501 L375.704,459.96 Z" id="path-3"></path>
        <filter x="-3.4%" y="-9.3%" width="106.9%" height="126.1%" filterUnits="objectBoundingBox" id="filter-4">
            <feOffset dx="0" dy="2" in="SourceAlpha" result="shadowOffsetOuter1"></feOffset>
            <feGaussianBlur stdDeviation="2" in="shadowOffsetOuter1" result="shadowBlurOuter1"></feGaussianBlur>
            <feColorMatrix values="0 0 0 0 0   0 0 0 0 0   0 0 0 0 0  0 0 0 0.5 0" type="matrix" in="shadowBlurOuter1"></feColorMatrix>
        </filter>
        <path d="M408.552,450.024 L415.464,450.024 L415.464,472.056 L416.04,472.056 L438.576,450.024 L448.224,450.024 L423.6,473.568 L449.88,501 L439.8,501 L416.04,475.512 L415.464,475.512 L415.464,501 L408.552,501 L408.552,450.024 Z M480.408,502.296 C476.519981,502.296 472.944016,501.612007 469.68,500.244 C466.415984,498.875993 463.620012,496.992012 461.292,494.592 C458.963988,492.191988 457.140007,489.360016 455.82,486.096 C454.499993,482.831984 453.84,479.304019 453.84,475.512 C453.84,471.719981 454.499993,468.192016 455.82,464.928 C457.140007,461.663984 458.963988,458.832012 461.292,456.432 C463.620012,454.031988 466.415984,452.148007 469.68,450.78 C472.944016,449.411993 476.519981,448.728 480.408,448.728 C484.296019,448.728 487.871984,449.411993 491.136,450.78 C494.400016,452.148007 497.195988,454.031988 499.524,456.432 C501.852012,458.832012 503.675993,461.663984 504.996,464.928 C506.316007,468.192016 506.976,471.719981 506.976,475.512 C506.976,479.304019 506.316007,482.831984 504.996,486.096 C503.675993,489.360016 501.852012,492.191988 499.524,494.592 C497.195988,496.992012 494.400016,498.875993 491.136,500.244 C487.871984,501.612007 484.296019,502.296 480.408,502.296 Z M480.408,495.816 C483.336015,495.816 485.975988,495.276005 488.328,494.196 C490.680012,493.115995 492.695992,491.664009 494.376,489.84 C496.056008,488.015991 497.351995,485.868012 498.264,483.396 C499.176005,480.923988 499.632,478.296014 499.632,475.512 C499.632,472.727986 499.176005,470.100012 498.264,467.628 C497.351995,465.155988 496.056008,463.008009 494.376,461.184 C492.695992,459.359991 490.680012,457.908005 488.328,456.828 C485.975988,455.747995 483.336015,455.208 480.408,455.208 C477.479985,455.208 474.840012,455.747995 472.488,456.828 C470.135988,457.908005 468.120008,459.359991 466.44,461.184 C464.759992,463.008009 463.464005,465.155988 462.552,467.628 C461.639995,470.100012 461.184,472.727986 461.184,475.512 C461.184,478.296014 461.639995,480.923988 462.552,483.396 C463.464005,485.868012 464.759992,488.015991 466.44,489.84 C468.120008,491.664009 470.135988,493.115995 472.488,494.196 C474.840012,495.276005 477.479985,495.816 480.408,495.816 Z M518.208,450.024 L528.504,450.024 L544.704,488.616 L544.992,488.616 L561.048,450.024 L571.344,450.024 L571.344,501 L564.432,501 L564.432,459.096 L564.288,459.096 L547.08,501 L542.472,501 L525.264,459.096 L525.12,459.096 L525.12,501 L518.208,501 L518.208,450.024 Z M585.24,450.024 L595.536,450.024 L611.736,488.616 L612.024,488.616 L628.08,450.024 L638.376,450.024 L638.376,501 L631.464,501 L631.464,459.096 L631.32,459.096 L614.112,501 L609.504,501 L592.296,459.096 L592.152,459.096 L592.152,501 L585.24,501 L585.24,450.024 Z M658.752,450.024 L658.752,481.272 C658.752,482.856008 658.967998,484.499991 659.4,486.204 C659.832002,487.908009 660.551995,489.479993 661.56,490.92 C662.568005,492.360007 663.887992,493.535995 665.52,494.448 C667.152008,495.360005 669.167988,495.816 671.568,495.816 C673.968012,495.816 675.983992,495.360005 677.616,494.448 C679.248008,493.535995 680.567995,492.360007 681.576,490.92 C682.584005,489.479993 683.303998,487.908009 683.736,486.204 C684.168002,484.499991 684.384,482.856008 684.384,481.272 L684.384,450.024 L691.296,450.024 L691.296,482.352 C691.296,485.328015 690.792005,488.027988 689.784,490.452 C688.775995,492.876012 687.384009,494.975991 685.608,496.752 C683.831991,498.528009 681.744012,499.895995 679.344,500.856 C676.943988,501.816005 674.352014,502.296 671.568,502.296 C668.783986,502.296 666.192012,501.816005 663.792,500.856 C661.391988,499.895995 659.304009,498.528009 657.528,496.752 C655.751991,494.975991 654.360005,492.876012 653.352,490.452 C652.343995,488.027988 651.84,485.328015 651.84,482.352 L651.84,450.024 L658.752,450.024 Z M705.264,450.024 L714.336,450.024 L742.416,491.928 L742.56,491.928 L742.56,450.024 L749.472,450.024 L749.472,501 L740.688,501 L712.32,459.096 L712.176,459.096 L712.176,501 L705.264,501 L705.264,450.024 Z M764.376,450.024 L771.288,450.024 L771.288,501 L764.376,501 L764.376,450.024 Z M786.192,450.024 L793.104,450.024 L793.104,472.056 L793.68,472.056 L816.216,450.024 L825.864,450.024 L801.24,473.568 L827.52,501 L817.44,501 L793.68,475.512 L793.104,475.512 L793.104,501 L786.192,501 L786.192,450.024 Z M850.632,450.024 L856.896,450.024 L878.712,501 L870.648,501 L865.536,488.4 L841.272,488.4 L836.232,501 L828.168,501 L850.632,450.024 Z M863.016,482.352 L853.512,458.952 L853.368,458.952 L843.72,482.352 L863.016,482.352 Z M891.168,456.504 L874.752,456.504 L874.752,450.024 L914.496,450.024 L914.496,456.504 L898.08,456.504 L898.08,501 L891.168,501 L891.168,456.504 Z M923.64,450.024 L930.552,450.024 L930.552,501 L923.64,501 L923.64,450.024 Z M968.855999,502.296 C964.96798,502.296 961.392016,501.612007 958.127999,500.244 C954.863983,498.875993 952.068011,496.992012 949.739999,494.592 C947.411988,492.191988 945.588006,489.360016 944.267999,486.096 C942.947993,482.831984 942.287999,479.304019 942.287999,475.512 C942.287999,471.719981 942.947993,468.192016 944.267999,464.928 C945.588006,461.663984 947.411988,458.832012 949.739999,456.432 C952.068011,454.031988 954.863983,452.148007 958.127999,450.78 C961.392016,449.411993 964.96798,448.728 968.855999,448.728 C972.744019,448.728 976.319983,449.411993 979.583999,450.78 C982.848016,452.148007 985.643988,454.031988 987.971999,456.432 C990.300011,458.832012 992.123993,461.663984 993.443999,464.928 C994.764006,468.192016 995.423999,471.719981 995.423999,475.512 C995.423999,479.304019 994.764006,482.831984 993.443999,486.096 C992.123993,489.360016 990.300011,492.191988 987.971999,494.592 C985.643988,496.992012 982.848016,498.875993 979.583999,500.244 C976.319983,501.612007 972.744019,502.296 968.855999,502.296 Z M968.855999,495.816 C971.784014,495.816 974.423988,495.276005 976.775999,494.196 C979.128011,493.115995 981.143991,491.664009 982.823999,489.84 C984.504008,488.015991 985.799995,485.868012 986.711999,483.396 C987.624004,480.923988 988.079999,478.296014 988.079999,475.512 C988.079999,472.727986 987.624004,470.100012 986.711999,467.628 C985.799995,465.155988 984.504008,463.008009 982.823999,461.184 C981.143991,459.359991 979.128011,457.908005 976.775999,456.828 C974.423988,455.747995 971.784014,455.208 968.855999,455.208 C965.927985,455.208 963.288011,455.747995 960.935999,456.828 C958.583988,457.908005 956.568008,459.359991 954.887999,461.184 C953.207991,463.008009 951.912004,465.155988 950.999999,467.628 C950.087995,470.100012 949.631999,472.727986 949.631999,475.512 C949.631999,478.296014 950.087995,480.923988 950.999999,483.396 C951.912004,485.868012 953.207991,488.015991 954.887999,489.84 C956.568008,491.664009 958.583988,493.115995 960.935999,494.196 C963.288011,495.276005 965.927985,495.816 968.855999,495.816 Z M1007.16,450.024 L1016.232,450.024 L1044.312,491.928 L1044.456,491.928 L1044.456,450.024 L1051.368,450.024 L1051.368,501 L1042.584,501 L1014.216,459.096 L1014.072,459.096 L1014.072,501 L1007.16,501 L1007.16,450.024 Z" id="path-5"></path>
        <filter x="-1.1%" y="-9.3%" width="102.2%" height="126.1%" filterUnits="objectBoundingBox" id="filter-6">
            <feOffset dx="0" dy="2" in="SourceAlpha" result="shadowOffsetOuter1"></feOffset>
            <feGaussianBlur stdDeviation="2" in="shadowOffsetOuter1" result="shadowBlurOuter1"></feGaussianBlur>
            <feColorMatrix values="0 0 0 0 0   0 0 0 0 0   0 0 0 0 0  0 0 0 0.5 0" type="matrix" in="shadowBlurOuter1"></feColorMatrix>
        </filter>
        <path d="M199.276,521.512 L215.296,521.512 L215.296,524.752 L202.732,524.752 L202.732,532.744 L214.432,532.744 L214.432,535.984 L202.732,535.984 L202.732,547 L199.276,547 L199.276,521.512 Z M224.528,521.512 L224.528,537.136 C224.528,537.928004 224.635999,538.749996 224.852,539.602 C225.068001,540.454004 225.427998,541.239996 225.932,541.96 C226.436003,542.680004 227.095996,543.267998 227.912,543.724 C228.728004,544.180002 229.735994,544.408 230.936,544.408 C232.136006,544.408 233.143996,544.180002 233.96,543.724 C234.776004,543.267998 235.435998,542.680004 235.94,541.96 C236.444003,541.239996 236.803999,540.454004 237.02,539.602 C237.236001,538.749996 237.344,537.928004 237.344,537.136 L237.344,521.512 L240.8,521.512 L240.8,537.676 C240.8,539.164007 240.548003,540.513994 240.044,541.726 C239.539998,542.938006 238.844004,543.987996 237.956,544.876 C237.067996,545.764004 236.024006,546.447998 234.824,546.928 C233.623994,547.408002 232.328007,547.648 230.936,547.648 C229.543993,547.648 228.248006,547.408002 227.048,546.928 C225.847994,546.447998 224.804004,545.764004 223.916,544.876 C223.027996,543.987996 222.332003,542.938006 221.828,541.726 C221.323998,540.513994 221.072,539.164007 221.072,537.676 L221.072,521.512 L224.528,521.512 Z M227.264,514.672 C227.816003,514.672 228.325998,514.863998 228.794,515.248 C229.262002,515.632002 229.496,516.123997 229.496,516.724 C229.496,517.372003 229.286002,517.911998 228.866,518.344 C228.445998,518.776002 227.912003,518.992 227.264,518.992 C226.615997,518.992 226.082002,518.776002 225.662,518.344 C225.241998,517.911998 225.032,517.372003 225.032,516.724 C225.032,516.123997 225.265998,515.632002 225.734,515.248 C226.202002,514.863998 226.711997,514.672 227.264,514.672 Z M234.608,514.672 C235.160003,514.672 235.669998,514.863998 236.138,515.248 C236.606002,515.632002 236.84,516.123997 236.84,516.724 C236.84,517.372003 236.630002,517.911998 236.21,518.344 C235.789998,518.776002 235.256003,518.992 234.608,518.992 C233.959997,518.992 233.426002,518.776002 233.006,518.344 C232.585998,517.911998 232.376,517.372003 232.376,516.724 C232.376,516.123997 232.609998,515.632002 233.078,515.248 C233.546002,514.863998 234.055997,514.672 234.608,514.672 Z M248.484,521.512 L257.448,521.512 C259.080008,521.512 260.423995,521.733998 261.48,522.178 C262.536005,522.622002 263.369997,523.185997 263.982,523.87 C264.594003,524.554003 265.019999,525.321996 265.26,526.174 C265.500001,527.026004 265.62,527.847996 265.62,528.64 C265.62,529.456004 265.476001,530.241996 265.188,530.998 C264.899999,531.754004 264.486003,532.437997 263.946,533.05 C263.405997,533.662003 262.746004,534.177998 261.966,534.598 C261.185996,535.018002 260.316005,535.276 259.356,535.372 L266.592,547 L262.272,547 L255.792,535.768 L251.94,535.768 L251.94,547 L248.484,547 L248.484,521.512 Z M251.94,532.744 L256.476,532.744 C257.148003,532.744 257.813997,532.690001 258.474,532.582 C259.134003,532.473999 259.721997,532.276001 260.238,531.988 C260.754003,531.699999 261.167998,531.286003 261.48,530.746 C261.792002,530.205997 261.948,529.504004 261.948,528.64 C261.948,527.775996 261.792002,527.074003 261.48,526.534 C261.167998,525.993997 260.754003,525.580001 260.238,525.292 C259.721997,525.003999 259.134003,524.806001 258.474,524.698 C257.813997,524.589999 257.148003,524.536 256.476,524.536 L251.94,524.536 L251.94,532.744 Z M283.688,521.512 L300.14,521.512 L300.14,524.752 L287.144,524.752 L287.144,532.348 L299.24,532.348 L299.24,535.588 L287.144,535.588 L287.144,543.76 L300.788,543.76 L300.788,547 L283.688,547 L283.688,521.512 Z M307.284,521.512 L310.74,521.512 L310.74,547 L307.284,547 L307.284,521.512 Z M318.892,521.512 L323.428,521.512 L337.468,542.464 L337.54,542.464 L337.54,521.512 L340.996,521.512 L340.996,547 L336.604,547 L322.42,526.048 L322.348,526.048 L322.348,547 L318.892,547 L318.892,521.512 Z M349.148,521.512 L365.6,521.512 L365.6,524.752 L352.604,524.752 L352.604,532.348 L364.7,532.348 L364.7,535.588 L352.604,535.588 L352.604,543.76 L366.248,543.76 L366.248,547 L349.148,547 L349.148,521.512 Z M385.108,541.672 C385.732003,542.608005 386.529995,543.297998 387.502,543.742 C388.474005,544.186002 389.475995,544.408 390.508,544.408 C391.084003,544.408 391.671997,544.318001 392.272,544.138 C392.872003,543.957999 393.417998,543.688002 393.91,543.328 C394.402003,542.967998 394.803999,542.524003 395.116,541.996 C395.428002,541.467997 395.584,540.856003 395.584,540.16 C395.584,539.175995 395.272003,538.426003 394.648,537.91 C394.023997,537.393997 393.250005,536.962002 392.326,536.614 C391.401996,536.265998 390.394006,535.930002 389.302,535.606 C388.209995,535.281998 387.202005,534.832003 386.278,534.256 C385.353996,533.679997 384.580003,532.906005 383.956,531.934 C383.331997,530.961995 383.02,529.648008 383.02,527.992 C383.02,527.247996 383.181999,526.456004 383.506,525.616 C383.830002,524.775996 384.339997,524.008003 385.036,523.312 C385.732004,522.615997 386.625995,522.034002 387.718,521.566 C388.810006,521.097998 390.123993,520.864 391.66,520.864 C393.052007,520.864 394.383994,521.055998 395.656,521.44 C396.928007,521.824002 398.043995,522.603994 399.004,523.78 L396.196,526.336 C395.763998,525.663997 395.152004,525.124002 394.36,524.716 C393.567996,524.307998 392.668005,524.104 391.66,524.104 C390.699995,524.104 389.902003,524.229999 389.266,524.482 C388.629997,524.734001 388.120002,525.057998 387.736,525.454 C387.351998,525.850002 387.082001,526.275998 386.926,526.732 C386.769999,527.188002 386.692,527.607998 386.692,527.992 C386.692,529.072005 387.003997,529.899997 387.628,530.476 C388.252003,531.052003 389.025996,531.519998 389.95,531.88 C390.874005,532.240002 391.881995,532.563999 392.974,532.852 C394.066006,533.140001 395.073996,533.541997 395.998,534.058 C396.922005,534.574003 397.695997,535.269996 398.32,536.146 C398.944003,537.022004 399.256,538.227992 399.256,539.764 C399.256,540.988006 399.022003,542.091995 398.554,543.076 C398.085998,544.060005 397.456004,544.887997 396.664,545.56 C395.871996,546.232003 394.936006,546.747998 393.856,547.108 C392.775995,547.468002 391.624006,547.648 390.4,547.648 C388.767992,547.648 387.220008,547.360003 385.756,546.784 C384.291993,546.207997 383.128005,545.320006 382.264,544.12 L385.108,541.672 Z M405.968,521.512 L409.424,521.512 L409.424,547 L405.968,547 L405.968,521.512 Z M435.324,527.02 C434.603997,526.083995 433.692006,525.364003 432.588,524.86 C431.483995,524.355997 430.344006,524.104 429.168,524.104 C427.727993,524.104 426.426006,524.373997 425.262,524.914 C424.097994,525.454003 423.102004,526.191995 422.274,527.128 C421.445996,528.064005 420.804003,529.161994 420.348,530.422 C419.891998,531.682006 419.664,533.031993 419.664,534.472 C419.664,535.816007 419.879998,537.087994 420.312,538.288 C420.744002,539.488006 421.367996,540.543995 422.184,541.456 C423.000004,542.368005 423.995994,543.087997 425.172,543.616 C426.348006,544.144003 427.679993,544.408 429.168,544.408 C430.632008,544.408 431.915995,544.108003 433.02,543.508 C434.124006,542.907997 435.059996,542.068005 435.828,540.988 L438.744,543.184 C438.551999,543.448001 438.216003,543.825998 437.736,544.318 C437.255998,544.810002 436.620004,545.301998 435.828,545.794 C435.035996,546.286002 434.082006,546.717998 432.966,547.09 C431.849995,547.462002 430.560008,547.648 429.096,547.648 C427.07999,547.648 425.262008,547.264004 423.642,546.496 C422.021992,545.727996 420.642006,544.720006 419.502,543.472 C418.361995,542.223994 417.492003,540.814008 416.892,539.242 C416.291997,537.669992 415.992,536.080008 415.992,534.472 C415.992,532.50399 416.315997,530.686008 416.964,529.018 C417.612004,527.349992 418.517994,525.910006 419.682,524.698 C420.846006,523.485994 422.243992,522.544003 423.876,521.872 C425.508008,521.199997 427.30799,520.864 429.276,520.864 C430.956009,520.864 432.605992,521.187997 434.226,521.836 C435.846008,522.484003 437.171995,523.479993 438.204,524.824 L435.324,527.02 Z M444.52,521.512 L447.976,521.512 L447.976,532.096 L461.188,532.096 L461.188,521.512 L464.644,521.512 L464.644,547 L461.188,547 L461.188,535.336 L447.976,535.336 L447.976,547 L444.52,547 L444.52,521.512 Z M485.16,541.672 C485.784003,542.608005 486.581995,543.297998 487.554,543.742 C488.526005,544.186002 489.527995,544.408 490.56,544.408 C491.136003,544.408 491.723997,544.318001 492.324,544.138 C492.924003,543.957999 493.469998,543.688002 493.962,543.328 C494.454003,542.967998 494.855999,542.524003 495.168,541.996 C495.480002,541.467997 495.636,540.856003 495.636,540.16 C495.636,539.175995 495.324003,538.426003 494.7,537.91 C494.075997,537.393997 493.302005,536.962002 492.378,536.614 C491.453996,536.265998 490.446006,535.930002 489.354,535.606 C488.261995,535.281998 487.254005,534.832003 486.33,534.256 C485.405996,533.679997 484.632003,532.906005 484.008,531.934 C483.383997,530.961995 483.072,529.648008 483.072,527.992 C483.072,527.247996 483.233999,526.456004 483.558,525.616 C483.882002,524.775996 484.391997,524.008003 485.088,523.312 C485.784004,522.615997 486.677995,522.034002 487.77,521.566 C488.862006,521.097998 490.175993,520.864 491.712,520.864 C493.104007,520.864 494.435994,521.055998 495.708,521.44 C496.980007,521.824002 498.095996,522.603994 499.056,523.78 L496.248,526.336 C495.815998,525.663997 495.204004,525.124002 494.412,524.716 C493.619996,524.307998 492.720005,524.104 491.712,524.104 C490.751996,524.104 489.954004,524.229999 489.318,524.482 C488.681997,524.734001 488.172002,525.057998 487.788,525.454 C487.403998,525.850002 487.134001,526.275998 486.978,526.732 C486.822,527.188002 486.744,527.607998 486.744,527.992 C486.744,529.072005 487.055997,529.899997 487.68,530.476 C488.304003,531.052003 489.077996,531.519998 490.002,531.88 C490.926005,532.240002 491.933995,532.563999 493.026,532.852 C494.118006,533.140001 495.125996,533.541997 496.05,534.058 C496.974005,534.574003 497.747997,535.269996 498.372,536.146 C498.996003,537.022004 499.308,538.227992 499.308,539.764 C499.308,540.988006 499.074003,542.091995 498.606,543.076 C498.137998,544.060005 497.508004,544.887997 496.716,545.56 C495.923996,546.232003 494.988006,546.747998 493.908,547.108 C492.827995,547.468002 491.676006,547.648 490.452,547.648 C488.819992,547.648 487.272008,547.360003 485.808,546.784 C484.343993,546.207997 483.180005,545.320006 482.316,544.12 L485.16,541.672 Z M523.768,527.02 C523.047997,526.083995 522.136006,525.364003 521.032,524.86 C519.927995,524.355997 518.788006,524.104 517.612,524.104 C516.171993,524.104 514.870006,524.373997 513.706,524.914 C512.541995,525.454003 511.546004,526.191995 510.718,527.128 C509.889996,528.064005 509.248003,529.161994 508.792,530.422 C508.335998,531.682006 508.108,533.031993 508.108,534.472 C508.108,535.816007 508.323998,537.087994 508.756,538.288 C509.188003,539.488006 509.811996,540.543995 510.628,541.456 C511.444004,542.368005 512.439994,543.087997 513.616,543.616 C514.792006,544.144003 516.123993,544.408 517.612,544.408 C519.076008,544.408 520.359995,544.108003 521.464,543.508 C522.568006,542.907997 523.503997,542.068005 524.272,540.988 L527.188,543.184 C526.995999,543.448001 526.660003,543.825998 526.18,544.318 C525.699998,544.810002 525.064004,545.301998 524.272,545.794 C523.479996,546.286002 522.526006,546.717998 521.41,547.09 C520.293995,547.462002 519.004008,547.648 517.54,547.648 C515.52399,547.648 513.706008,547.264004 512.086,546.496 C510.465992,545.727996 509.086006,544.720006 507.946,543.472 C506.805995,542.223994 505.936003,540.814008 505.336,539.242 C504.735997,537.669992 504.436,536.080008 504.436,534.472 C504.436,532.50399 504.759997,530.686008 505.408,529.018 C506.056004,527.349992 506.961995,525.910006 508.126,524.698 C509.290006,523.485994 510.687992,522.544003 512.32,521.872 C513.952009,521.199997 515.751991,520.864 517.72,520.864 C519.400009,520.864 521.049992,521.187997 522.67,521.836 C524.290008,522.484003 525.615995,523.479993 526.648,524.824 L523.768,527.02 Z M532.964,521.512 L536.42,521.512 L536.42,532.096 L549.632,532.096 L549.632,521.512 L553.088,521.512 L553.088,547 L549.632,547 L549.632,535.336 L536.42,535.336 L536.42,547 L532.964,547 L532.964,521.512 Z M561.24,521.512 L565.776,521.512 L579.816,542.464 L579.888,542.464 L579.888,521.512 L583.344,521.512 L583.344,547 L578.952,547 L564.768,526.048 L564.696,526.048 L564.696,547 L561.24,547 L561.24,521.512 Z M591.496,521.512 L607.948,521.512 L607.948,524.752 L594.952,524.752 L594.952,532.348 L607.048,532.348 L607.048,535.588 L594.952,535.588 L594.952,543.76 L608.596,543.76 L608.596,547 L591.496,547 L591.496,521.512 Z M615.092,521.512 L618.548,521.512 L618.548,543.76 L630.248,543.76 L630.248,547 L615.092,547 L615.092,521.512 Z M635.376,521.512 L638.832,521.512 L638.832,543.76 L650.532,543.76 L650.532,547 L635.376,547 L635.376,521.512 Z M663.776001,521.512 L667.772001,521.512 L675.260001,542.248 L675.332001,542.248 L683.108001,521.512 L686.888001,521.512 L676.844001,547 L673.604001,547 L663.776001,521.512 Z M691.548001,521.512 L708.000001,521.512 L708.000001,524.752 L695.004001,524.752 L695.004001,532.348 L707.100001,532.348 L707.100001,535.588 L695.004001,535.588 L695.004001,543.76 L708.648001,543.76 L708.648001,547 L691.548001,547 L691.548001,521.512 Z M715.144001,521.512 L724.108001,521.512 C725.740009,521.512 727.083995,521.733998 728.140001,522.178 C729.196006,522.622002 730.029998,523.185997 730.642001,523.87 C731.254004,524.554003 731.679999,525.321996 731.920001,526.174 C732.160002,527.026004 732.280001,527.847996 732.280001,528.64 C732.280001,529.456004 732.136002,530.241996 731.848001,530.998 C731.559999,531.754004 731.146003,532.437997 730.606001,533.05 C730.065998,533.662003 729.406004,534.177998 728.626001,534.598 C727.845997,535.018002 726.976005,535.276 726.016001,535.372 L733.252001,547 L728.932001,547 L722.452001,535.768 L718.600001,535.768 L718.600001,547 L715.144001,547 L715.144001,521.512 Z M718.600001,532.744 L723.136001,532.744 C723.808004,532.744 724.473997,532.690001 725.134001,532.582 C725.794004,532.473999 726.381998,532.276001 726.898001,531.988 C727.414003,531.699999 727.827999,531.286003 728.140001,530.746 C728.452002,530.205997 728.608001,529.504004 728.608001,528.64 C728.608001,527.775996 728.452002,527.074003 728.140001,526.534 C727.827999,525.993997 727.414003,525.580001 726.898001,525.292 C726.381998,525.003999 725.794004,524.806001 725.134001,524.698 C724.473997,524.589999 723.808004,524.536 723.136001,524.536 L718.600001,524.536 L718.600001,532.744 Z M746.732001,521.512 L749.864001,521.512 L760.772001,547 L756.740001,547 L754.184001,540.7 L742.052001,540.7 L739.532001,547 L735.500001,547 L746.732001,521.512 Z M752.924001,537.676 L748.172001,525.976 L748.100001,525.976 L743.276001,537.676 L752.924001,537.676 Z M744.464001,514.672 C745.016003,514.672 745.525998,514.863998 745.994001,515.248 C746.462003,515.632002 746.696001,516.123997 746.696001,516.724 C746.696001,517.372003 746.486003,517.911998 746.066001,518.344 C745.645998,518.776002 745.112004,518.992 744.464001,518.992 C743.815997,518.992 743.282003,518.776002 742.862001,518.344 C742.441998,517.911998 742.232001,517.372003 742.232001,516.724 C742.232001,516.123997 742.465998,515.632002 742.934001,515.248 C743.402003,514.863998 743.911998,514.672 744.464001,514.672 Z M751.808001,514.672 C752.360003,514.672 752.869998,514.863998 753.338001,515.248 C753.806003,515.632002 754.040001,516.123997 754.040001,516.724 C754.040001,517.372003 753.830003,517.911998 753.410001,518.344 C752.989998,518.776002 752.456004,518.992 751.808001,518.992 C751.159997,518.992 750.626003,518.776002 750.206001,518.344 C749.785998,517.911998 749.576001,517.372003 749.576001,516.724 C749.576001,516.123997 749.809998,515.632002 750.278001,515.248 C750.746003,514.863998 751.255998,514.672 751.808001,514.672 Z M765.684001,521.512 L770.220001,521.512 L784.260001,542.464 L784.332001,542.464 L784.332001,521.512 L787.788001,521.512 L787.788001,547 L783.396001,547 L769.212001,526.048 L769.140001,526.048 L769.140001,547 L765.684001,547 L765.684001,521.512 Z M795.364001,521.512 L804.256001,521.512 C806.05601,521.512 807.633994,521.715998 808.990001,522.124 C810.346007,522.532002 811.521996,523.077997 812.518001,523.762 C813.514006,524.446003 814.341997,525.231996 815.002001,526.12 C815.662004,527.008004 816.183999,527.919995 816.568001,528.856 C816.952003,529.792005 817.228,530.727995 817.396001,531.664 C817.564001,532.600005 817.648001,533.463996 817.648001,534.256 C817.648001,535.888008 817.348004,537.465992 816.748001,538.99 C816.147998,540.514008 815.260007,541.869994 814.084001,543.058 C812.907995,544.246006 811.450009,545.199996 809.710001,545.92 C807.969992,546.640004 805.960012,547 803.680001,547 L795.364001,547 L795.364001,521.512 Z M798.820001,543.76 L803.176001,543.76 C804.640008,543.76 806.025994,543.562002 807.334001,543.166 C808.642007,542.769998 809.787996,542.176004 810.772001,541.384 C811.756006,540.591996 812.535998,539.602006 813.112001,538.414 C813.688004,537.225994 813.976001,535.840008 813.976001,534.256 C813.976001,533.439996 813.844002,532.486005 813.580001,531.394 C813.315999,530.301995 812.818004,529.264005 812.086001,528.28 C811.353997,527.295995 810.340007,526.462003 809.044001,525.778 C807.747994,525.093997 806.068011,524.752 804.004001,524.752 L798.820001,524.752 L798.820001,543.76 Z" id="path-7"></path>
        <filter x="-1.1%" y="-15.2%" width="102.3%" height="142.5%" filterUnits="objectBoundingBox" id="filter-8">
            <feOffset dx="0" dy="2" in="SourceAlpha" result="shadowOffsetOuter1"></feOffset>
            <feGaussianBlur stdDeviation="2" in="shadowOffsetOuter1" result="shadowBlurOuter1"></feGaussianBlur>
            <feColorMatrix values="0 0 0 0 0   0 0 0 0 0   0 0 0 0 0  0 0 0 0.5 0" type="matrix" in="shadowBlurOuter1"></feColorMatrix>
        </filter>
        <path d="M827.276,521.512 L843.728,521.512 L843.728,524.752 L830.732,524.752 L830.732,532.348 L842.828,532.348 L842.828,535.588 L830.732,535.588 L830.732,543.76 L844.376,543.76 L844.376,547 L827.276,547 L827.276,521.512 Z M850.872,521.512 L859.836,521.512 C861.468008,521.512 862.811995,521.733998 863.868,522.178 C864.924005,522.622002 865.757997,523.185997 866.37,523.87 C866.982003,524.554003 867.407999,525.321996 867.648,526.174 C867.888001,527.026004 868.008,527.847996 868.008,528.64 C868.008,529.456004 867.864001,530.241996 867.576,530.998 C867.287999,531.754004 866.874003,532.437997 866.334,533.05 C865.793997,533.662003 865.134004,534.177998 864.354,534.598 C863.573996,535.018002 862.704005,535.276 861.744,535.372 L868.98,547 L864.66,547 L858.18,535.768 L854.328,535.768 L854.328,547 L850.872,547 L850.872,521.512 Z M854.328,532.744 L858.864,532.744 C859.536003,532.744 860.201997,532.690001 860.862,532.582 C861.522003,532.473999 862.109997,532.276001 862.626,531.988 C863.142003,531.699999 863.555998,531.286003 863.868,530.746 C864.180002,530.205997 864.336,529.504004 864.336,528.64 C864.336,527.775996 864.180002,527.074003 863.868,526.534 C863.555998,525.993997 863.142003,525.580001 862.626,525.292 C862.109997,525.003999 861.522003,524.806001 860.862,524.698 C860.201997,524.589999 859.536003,524.536 858.864,524.536 L854.328,524.536 L854.328,532.744 Z M874.468,521.512 L879.004,521.512 L893.044,542.464 L893.116,542.464 L893.116,521.512 L896.572,521.512 L896.572,547 L892.18,547 L877.996,526.048 L877.924,526.048 L877.924,547 L874.468,547 L874.468,521.512 Z" id="path-9"></path>
        <filter x="-10.1%" y="-19.6%" width="120.2%" height="154.9%" filterUnits="objectBoundingBox" id="filter-10">
            <feOffset dx="0" dy="2" in="SourceAlpha" result="shadowOffsetOuter1"></feOffset>
            <feGaussianBlur stdDeviation="2" in="shadowOffsetOuter1" result="shadowBlurOuter1"></feGaussianBlur>
            <feColorMatrix values="0 0 0 0 0   0 0 0 0 0   0 0 0 0 0  0 0 0 0.5 0" type="matrix" in="shadowBlurOuter1"></feColorMatrix>
        </filter>
        <path d="M905.7,521.512 L914.592,521.512 C916.392009,521.512 917.969993,521.715998 919.326,522.124 C920.682007,522.532002 921.857995,523.077997 922.854,523.762 C923.850005,524.446003 924.677997,525.231996 925.338,526.12 C925.998003,527.008004 926.519998,527.919995 926.904,528.856 C927.288002,529.792005 927.563999,530.727995 927.732,531.664 C927.900001,532.600005 927.984,533.463996 927.984,534.256 C927.984,535.888008 927.684003,537.465992 927.084,538.99 C926.483997,540.514008 925.596006,541.869994 924.42,543.058 C923.243994,544.246006 921.786009,545.199996 920.046,545.92 C918.305991,546.640004 916.296011,547 914.016,547 L905.7,547 L905.7,521.512 Z M909.156,543.76 L913.512,543.76 C914.976007,543.76 916.361993,543.562002 917.67,543.166 C918.978007,542.769998 920.123995,542.176004 921.108,541.384 C922.092005,540.591996 922.871997,539.602006 923.448,538.414 C924.024003,537.225994 924.312,535.840008 924.312,534.256 C924.312,533.439996 924.180001,532.486005 923.916,531.394 C923.651999,530.301995 923.154004,529.264005 922.422,528.28 C921.689996,527.295995 920.676006,526.462003 919.38,525.778 C918.083994,525.093997 916.40401,524.752 914.34,524.752 L909.156,524.752 L909.156,543.76 Z M934.552,521.512 L951.004,521.512 L951.004,524.752 L938.008,524.752 L938.008,532.348 L950.104,532.348 L950.104,535.588 L938.008,535.588 L938.008,543.76 L951.652,543.76 L951.652,547 L934.552,547 L934.552,521.512 Z M966.516,521.512 L970.116,521.512 L975.732,541.888 L975.804,541.888 L981.816,521.512 L985.776,521.512 L991.788,541.888 L991.86,541.888 L997.476,521.512 L1001.076,521.512 L993.66,547 L990.024,547 L983.832,526.192 L983.76,526.192 L977.604,547 L973.968,547 L966.516,521.512 Z M1005.988,521.512 L1022.44,521.512 L1022.44,524.752 L1009.444,524.752 L1009.444,532.348 L1021.54,532.348 L1021.54,535.588 L1009.444,535.588 L1009.444,543.76 L1023.088,543.76 L1023.088,547 L1005.988,547 L1005.988,521.512 Z M1029.584,521.512 L1033.04,521.512 L1033.04,543.76 L1044.74,543.76 L1044.74,547 L1029.584,547 L1029.584,521.512 Z M1051.884,524.752 L1043.676,524.752 L1043.676,521.512 L1063.548,521.512 L1063.548,524.752 L1055.34,524.752 L1055.34,547 L1051.884,547 L1051.884,524.752 Z" id="path-11"></path>
        <filter x="-4.4%" y="-19.6%" width="108.9%" height="154.9%" filterUnits="objectBoundingBox" id="filter-12">
            <feOffset dx="0" dy="2" in="SourceAlpha" result="shadowOffsetOuter1"></feOffset>
            <feGaussianBlur stdDeviation="2" in="shadowOffsetOuter1" result="shadowBlurOuter1"></feGaussianBlur>
            <feColorMatrix values="0 0 0 0 0   0 0 0 0 0   0 0 0 0 0  0 0 0 0.5 0" type="matrix" in="shadowBlurOuter1"></feColorMatrix>
        </filter>
    </defs>
    <g id="Page-1" stroke="none" stroke-width="1" fill="none" fill-rule="evenodd">
        <rect id="Rectangle" x="0" y="0" width="1280" height="720"></rect>
        <g id="sprit_logo" opacity="0.903627232" transform="translate(494.000000, 114.000000)">
            <mask id="mask-2" fill="white">
                <use xlink:href="#path-1"></use>
            </mask>
            <g id="Rectangle-path"></g>
            <path d="M87.4929381,10.0108791 C93.5396109,7.96683108 99.8531502,6.27230108 106.433556,4.92728907 C122.504651,1.64242969 138.424197,0 154.192194,0 C175.418218,0 197.023256,3.40509085 219.007307,10.2152726 C240.991472,17.0254543 260.32237,26.8623646 277,39.7260035 L209.683056,96.8555978 C202.405536,89.2888045 193.460299,83.5506021 182.847343,79.6409906 C180.227364,78.6759778 177.672091,77.8300111 175.181525,77.1030904 L87.4929381,10.0108791 Z M47.0128952,146.429575 C46.1098287,145.768358 45.2213115,145.095006 44.3473433,144.409517 C36.6150069,138.345109 30.4745855,131.080419 25.9260791,122.615445 C21.3776859,114.150472 19.1034893,103.979905 19.1034893,92.103745 C19.1034893,75.4265669 23.1970658,61.276169 31.3842189,49.6525512 C39.1944527,38.5642739 49.143242,29.3731139 61.2305868,22.0790711 L133.457785,77.3415213 C129.693347,79.2593544 127.811129,82.1067519 127.811129,85.8837136 C127.811129,89.9193141 130.31279,92.9460427 135.316113,94.9638994 C140.319437,96.9817561 148.430787,99.5040206 159.650164,102.530693 C163.073234,103.429889 166.549802,104.373565 170.079868,105.361721 L224.183182,146.757248 L235.790858,131.674464 C244.551259,137.541873 251.91981,144.474374 257.896511,152.471969 C264.870819,161.804415 268.357974,173.406922 268.357974,187.279489 C268.357974,203.422117 264.491805,217.483837 256.759469,229.46465 C249.490328,240.727686 240.07731,250.207458 228.520414,257.903966 L156.996161,203.17934 C158.462286,201.469004 159.195348,199.314377 159.195348,196.715458 C159.195348,194.188565 158.36146,192.040712 156.693686,190.271898 C155.026025,188.503084 152.069547,186.671106 147.824251,184.775965 C143.579069,182.880823 137.741916,180.79619 130.31279,178.522065 C127.554452,177.677623 124.534796,176.780967 121.25382,175.832098 L60.2851183,129.183809 L47.0128952,146.429575 Z M121.665329,208.30899 C113.010905,207.118529 104.522296,204.765435 96.1995015,201.249709 C83.6154476,195.93401 73.5330552,189.863958 65.9523243,183.039551 L0,242.72398 C8.18715308,248.746504 17.4356583,254.204449 27.7455156,259.097813 C38.0552598,263.991178 49.0472855,268.257194 60.7215929,271.895861 C72.3960135,275.534529 84.5251942,278.294885 97.1091349,280.176931 C109.693189,282.058977 122.504651,283 135.543522,283 C151.917941,283 167.989093,281.045251 183.756977,277.135752 C190.622138,275.433545 197.185448,273.348912 203.446904,270.881853 L121.665329,208.30899 Z" id="Shape" fill="#FFFFFF" mask="url(#mask-2)"></path>
        </g>
        <g id="SPRIT">
            <use fill="black" fill-opacity="1" filter="url(#filter-4)" xlink:href="#path-3"></use>
            <use fill="#FFFFFF" fill-rule="evenodd" xlink:href="#path-3"></use>
        </g>
        <g id="KOMMUNIKATION">
            <use fill="black" fill-opacity="1" filter="url(#filter-6)" xlink:href="#path-5"></use>
            <use fill="#FFFFFF" fill-rule="evenodd" xlink:href="#path-5"></use>
        </g>
        <g id="FÜR-EINE-SICH-SCHNEL">
            <use fill="black" fill-opacity="1" filter="url(#filter-8)" xlink:href="#path-7"></use>
            <use fill="#FFFFFF" fill-rule="evenodd" xlink:href="#path-7"></use>
        </g>
        <g id="ERN">
            <use fill="black" fill-opacity="1" filter="url(#filter-10)" xlink:href="#path-9"></use>
            <use fill="#FFFFFF" fill-rule="evenodd" xlink:href="#path-9"></use>
        </g>
        <g id="DE-WELT">
            <use fill="black" fill-opacity="1" filter="url(#filter-12)" xlink:href="#path-11"></use>
            <use fill="#FFFFFF" fill-rule="evenodd" xlink:href="#path-11"></use>
        </g>
    </g>
</svg>