<?xml version="1.0" standalone="no"?><!-- Generator: Gravit.io --><svg xmlns="http://www.w3.org/2000/svg" xmlns:xlink="http://www.w3.org/1999/xlink" style="isolation:isolate" viewBox="0 0 1631 1671.193" width="1631" height="1671.193"><defs><clipPath id="_clipPath_9tr0KBLPHNAfw6kivKq70oQsUNMB44lW"><rect width="1631" height="1671.193"/></clipPath></defs><g clip-path="url(#_clipPath_9tr0KBLPHNAfw6kivKq70oQsUNMB44lW)"><path d=" M 515.166 59.117 Q 568.571 41.011 626.69 29.097 Q 768.632 0 907.897 0 Q 1095.368 0 1289.534 60.324 Q 1483.701 120.648 1631 234.593 L 1234.632 571.959 Q 1170.356 504.933 1076.621 470.302 Q 1053.481 461.754 1031.484 455.315 L 515.166 59.117 Z  M 276.816 864.707 Q 268.84 858.85 261.121 852.778 Q 192.828 799.06 152.655 724.078 Q 112.483 649.096 112.483 543.898 Q 112.483 396.173 184.793 293.212 Q 253.774 194.993 360.531 130.383 L 785.811 456.723 Q 752.563 473.711 752.563 507.167 Q 752.563 542.914 796.753 560.788 Q 840.943 578.662 940.034 605.472 Q 970.267 613.437 1001.445 622.19 L 1320.01 866.642 L 1388.357 777.574 Q 1465.73 829.547 1518.517 900.389 Q 1580.115 983.055 1580.115 1105.937 Q 1580.115 1248.927 1511.822 1355.052 Q 1447.62 1454.819 1345.548 1522.994 L 924.407 1199.83 Q 937.356 1184.68 937.356 1161.659 Q 937.356 1139.276 922.626 1123.608 Q 907.897 1107.94 870.402 1091.153 Q 832.908 1074.366 767.293 1054.222 Q 742.931 1046.742 713.953 1038.337 L 354.964 762.866 L 276.816 864.707 Z  M 716.376 1230.122 Q 639.939 1219.577 566.431 1188.435 Q 455.287 1141.349 388.333 1080.899 L 0 1433.352 Q 72.31 1486.699 163.368 1530.044 Q 254.425 1573.389 357.534 1605.62 Q 460.644 1637.851 571.787 1654.522 Q 682.931 1671.193 798.092 1671.193 Q 942.713 1671.193 1081.977 1636.563 Q 1142.611 1621.485 1197.913 1599.632 L 716.376 1230.122 Z " fill-rule="evenodd" fill="#FFFFFF"/></g></svg>
