<svg version="1" xmlns="http://www.w3.org/2000/svg" width="2228" height="2228" viewBox="0 0 1671.000000 1671.000000"><path d="M887.8.5c-.2.2-7.9.6-17.3.9-9.3.4-19.7.8-23 1.1-3.3.2-10 .7-15 1-8.8.6-10.9.7-25 2-3.8.3-9.2.8-12 1.1-2.7.2-6.6.6-8.5.9-1.9.2-6.3.7-9.8 1-3.5.4-7.1.8-8 1-.9.1-4.8.6-8.7 1-3.8.4-8.3.9-10 1.1-1.6.3-4.1.7-5.5.9-1.4.2-4.7.6-7.5 1-2.7.3-5.7.8-6.5 1-.8.2-3.7.6-6.5 1-5.7.7-4.3.5-28 4.4-9.9 1.7-23.8 4.2-31 5.6-7.1 1.4-14.3 2.8-16 3.1-5.8 1-30.1 6.5-42 9.5-6.6 1.7-12.7 3.2-13.5 3.4-9.2 2-55.9 16.2-57.3 17.5-.5.4.6 1.8 2.5 3.1 1.8 1.3 3.5 2.6 3.8 2.9.3.3 4.3 3.5 9 7.1 4.7 3.6 15.2 11.7 23.4 17.9 29.2 22.4 38.6 29.6 50.3 38.5 6.5 4.9 12 9.2 12.3 9.5.3.3 2.3 1.9 4.5 3.5 2.1 1.7 10.2 7.9 18 13.8 7.7 5.9 18.1 13.9 23 17.6 5 3.8 12.4 9.5 16.5 12.6 4.1 3.2 11.1 8.6 15.5 11.9 4.4 3.4 8.6 6.7 9.5 7.3 1.9 1.6 55.8 42.9 71.4 54.8 6.5 4.9 14.4 11 17.6 13.5 3.1 2.5 7.2 5.6 9 7 2.8 2.1 61.8 47.4 96.5 74 5.5 4.2 23.1 17.7 39 29.9 16 12.2 30.1 23.1 31.5 24.1 1.4 1.1 15.7 12.1 31.8 24.5 27.7 21.3 29.7 22.6 37.5 25.1 35 11.2 56.8 19.7 82.2 32.1 8 3.9 25.9 13.5 26.5 14.2.3.3 2.1 1.4 4 2.5 7.8 4.1 32.3 21.2 44.5 30.9 7.2 5.7 18.6 15.8 25.5 22.4l12.5 12.1 2.7-2.2c7.5-6.1 11.2-9.2 12.4-10.4.8-.8 4.5-3.9 8.2-7 3.7-3.2 7.8-6.7 9.2-7.9 6-5.1 32.6-27.7 44.5-37.8 7.2-6 14.4-12.2 16-13.6 1.7-1.5 11.3-9.7 21.5-18.4 10.2-8.6 20.9-17.8 23.8-20.3 2.9-2.5 6.5-5.4 8-6.6 1.5-1.2 3.4-2.8 4.2-3.6 1.8-1.7 5.6-4.9 30.5-26 9.9-8.4 20.5-17.4 23.5-20 7.1-6.1 40.2-34.3 46.4-39.5 2.7-2.2 6.3-5.2 8-6.8 1.7-1.5 4.4-3.7 5.9-5 1.5-1.2 4-3.3 5.5-4.7 1.5-1.4 5.2-4.5 8.2-7 2.9-2.5 5.8-5 6.4-5.5.6-.6 5.4-4.6 10.6-9 5.2-4.4 11.3-9.5 13.6-11.5 4.3-3.8 4.9-4.2 19.9-16.9 5.5-4.7 10.9-9.3 12-10.3 1.1-1 10.6-9.1 21-18 10.5-8.8 19.2-16.3 19.5-16.7.3-.3 3.8-3.3 7.8-6.5s6.9-6.2 6.5-6.6c-2.9-2.5-23.5-17.6-38-27.8-13.7-9.6-36.9-24.6-56.9-36.9-4.4-2.7-35.9-20.7-42.6-24.4-21.9-11.9-70.2-34.9-94.3-44.9-1.1-.4-3.6-1.5-5.5-2.3-2-.9-10.1-4.1-18-7.2-8-3.1-15.4-6-16.5-6.5-35.3-14.9-142.2-46-190.9-55.6-1.1-.2-7.2-1.5-13.5-2.9-6.4-1.3-15.6-3.2-20.6-4-4.9-.8-9.7-1.7-10.5-2-.8-.2-3.5-.7-6-1-2.5-.3-5.2-.8-6-1-.8-.2-3.3-.6-5.5-1-2.2-.3-6.5-1-9.5-1.5s-7.5-1.2-10-1.5c-2.5-.3-5.6-.8-7-1-1.4-.2-4.9-.7-7.9-1-3-.4-6.1-.8-7-1-.9-.1-4.1-.6-7.1-1-3-.3-6.6-.8-8-1-1.4-.2-5.4-.7-9-1-3.6-.3-8.1-.8-10-1-1.9-.2-6.4-.6-10-1-3.6-.3-8.3-.8-10.5-1-2.2-.3-7.8-.7-12.5-.9-14.2-.9-26.2-1.7-32-2.2-5.9-.6-96.7-1.4-97.2-.9zM375.5 133.5c-30 19.6-36.6 24.2-53 36.9-26.2 20.3-49.2 41.4-71.1 65.2-8.5 9.1-26.9 31-32.1 38-17.6 23.7-23.1 31.9-31.8 46.8-12.2 21.2-21.8 42-29.2 63.1-8.3 23.9-16.1 54.3-18.8 73-.3 2.2-.9 6.5-1.4 9.5-.6 3-1.2 7.9-1.5 10.7-.3 2.9-.8 7.4-1.1 10-2 17.6-2.8 34.5-2.8 55.8 0 16.5.8 37.6 1.7 45 .2 1.6.7 5.9 1.1 9.5.3 3.6.8 7.6 1 9 .6 4.3 1.7 12.4 2 14.5 1.7 11.4 8.4 39.2 12.1 50.3 1.5 4.2 2.7 8.1 2.9 8.7.2 1.1.5 1.8 3.8 10.5 5.9 15.7 15.2 34.4 26.1 52.4 2.2 3.7 4.6 7.6 5.1 8.5 5 8.3 26.5 37.5 33 44.8 15.4 17.3 36.6 38 51.5 50.3 1.4 1.2 3.4 2.9 4.5 3.8 1.1.9 5.8 4.6 10.4 8.1l8.3 6.4 2.3-2.4c1.3-1.3 15.4-19.5 31.4-40.4 16-20.9 29.7-38.7 30.4-39.5.7-.8 3.8-4.9 7-9.1 3.1-4.2 6.2-8.1 6.9-8.7 1-.7 8.1 4.2 27.3 19 14.3 11 32.9 25.2 41.4 31.6 8.4 6.4 15.9 12.1 16.5 12.7.6.5 3.8 3.1 7.1 5.6 15.8 12 28.1 21.5 29.5 22.6.8.6 7.1 5.5 14 10.7 13.4 10.3 19.7 15.1 35.6 27.3 5.6 4.3 16.3 12.5 23.8 18.3 7.5 5.8 14.7 11.3 15.9 12.2 1.2.9 17.5 13.4 36.2 27.8 18.7 14.3 38.5 29.5 44.1 33.8 5.5 4.2 11.5 8.8 13.4 10.2 1.8 1.4 7.6 5.9 13 10s11.2 8.6 13 10c1.8 1.4 8.9 6.9 15.9 12.3 13.9 10.7 9.8 9 46.1 19.7 95.5 28.4 149.8 51.3 172.8 73.1 9 8.5 15.2 20 16.7 30.6.7 4.9.7 17.1 0 20.3-.2 1.4-.8 3.8-1.1 5.5-1 4.7-5.4 14.6-8 18-2.4 3.2-3.1 5.5-1.6 5.5.4 0 2.1 1.1 3.7 2.5 1.7 1.3 12.2 9.5 23.5 18.1 11.3 8.6 21.7 16.6 23.2 17.8 4.6 3.7 7 5.5 22.3 17.2 8.3 6.3 20.6 15.7 27.5 21 6.9 5.3 15.7 12 19.5 15 3.9 2.9 11.6 8.8 17.1 13.1 5.6 4.3 11.6 8.9 13.4 10.3 1.8 1.4 7.8 6 13.4 10.3 5.6 4.3 13.4 10.3 17.3 13.3 4 2.9 8.1 6 9 6.8 2 1.6 28 21.6 33.3 25.6 1.9 1.4 7.4 5.6 12.4 9.5 5 3.8 11.8 9 15.1 11.5 3.3 2.5 6.9 5.3 8 6.2 1.1.9 15.3 11.8 31.5 24.2 16.2 12.4 32.6 25 36.4 27.8 3.7 2.9 7.3 5.7 8 6.3.6.5 3.8 3 7.1 5.5s10.1 7.6 15.1 11.5c5 3.8 10.5 8.1 12.4 9.5 4 3 48.1 36.9 49.6 38.1 1.5 1.2 46.9-32 57.3-41.9.9-.9 4.4-4 7.6-6.7 6.7-5.6 24.9-23 33.4-31.9 3.1-3.2 7.2-7.5 9.1-9.5 7.2-7.5 25.9-30 36.1-43.6 23.6-31.3 39.5-58 54.9-92 8.5-18.8 19.8-53.4 24.5-75 .9-3.9 1.8-7.9 2-9 1.2-4.7 4.4-23.5 5-29 .4-3.3.9-6.2 1-6.5.2-.3.6-3.7 1-7.5.4-3.9.8-8 1-9.2 2.7-17.2 2.7-79.2-.1-103.3-.6-5.5-3.2-23.6-3.9-27-.3-1.4-1-5-1.6-8-3.4-17.5-12.8-47.9-19.1-62-13.1-29.2-24.9-48.4-45.5-74-13.7-17-17.2-20.8-36.8-40.6-17.7-17.9-27.2-26.3-45-40.5-14.1-11.2-35.8-26.9-37.1-26.9-.5 0-1.6 1.1-2.4 2.3-1.4 2.2-16 21.2-50.9 66.5-7.9 10.3-14.9 18.6-15.6 18.6-1.1-.1-6.8-4.4-40.5-30.3-4.7-3.6-23.3-17.9-41.5-31.8-18.1-14-33.7-25.9-34.5-26.6-.8-.6-7.1-5.5-14-10.6-6.9-5.2-12.7-9.7-13-10.1-.3-.3-3.2-2.5-6.5-5-3.3-2.4-6.6-5-7.5-5.6-.8-.7-9.6-7.5-19.5-15.1-9.9-7.5-18.4-14.1-19-14.6-.5-.4-23-17.7-50-38.3-26.9-20.6-49.9-38.3-51-39.2-1.1-.9-6.3-4.9-11.6-8.9l-9.6-7.1-18.9-5.2c-10.4-2.9-21.3-5.8-24.1-6.6-12.6-3.3-46.3-12.7-55.3-15.3-3.6-1-9-2.6-12-3.5-32.4-9.4-69.7-21.5-89.1-28.9-27.4-10.4-42.7-24.3-47.8-43.5-1.2-4.4-1.5-17.5-.6-22.7.9-4.7 3.8-12.8 5.2-14.6.7-.8 1.3-2 1.3-2.5 0-2.2 11.8-13.8 18.5-18.2l7.3-4.8-6.1-4.6c-6.4-4.6-19.8-14.9-41.7-31.8-6.9-5.3-17.4-13.4-23.5-18-6-4.6-11.4-8.8-12-9.2-3.8-3.1-5.6-4.5-7.7-6-1.3-1-13.8-10.5-27.8-21.3s-28.6-22-32.5-24.9c-10.6-8.1-65-49.8-73.5-56.4-4.1-3.2-28-21.5-53-40.7-25-19.2-49.6-38-54.6-41.9-5.1-3.9-16.5-12.7-25.5-19.6-9-6.8-16.6-12.7-16.9-13-.3-.3-7-5.4-15-11.4s-16.1-12.2-18-13.8c-1.9-1.6-4-3.2-4.5-3.6-.6-.4-3.7-2.8-7-5.3l-6-4.7-5 3.3zM402.9 1085.7c-3 2.6-6.3 5.7-7.4 6.8-1.1 1.1-4.1 3.8-6.5 5.9-2.5 2.1-7 6.2-10 9-7 6.4-14 12.8-25.9 23.6-5.2 4.7-10.2 9.2-11.1 10-.9.8-5.6 5.1-10.5 9.5s-9.9 8.9-11.1 10c-2.1 2-4.2 3.9-20.9 19-4.8 4.4-9.8 8.9-10.9 10-1.2 1.1-4.4 4-7.1 6.4-4.4 4-22.1 20.1-26.5 24.1-.9.8-5.4 4.9-10 9-4.7 4.1-8.7 7.7-9 8-.3.4-3.4 3.3-7 6.5-3.6 3.3-10.9 9.9-16.1 14.8-5.3 4.8-10.6 9.5-11.7 10.5-2.5 2.2-18.1 16.3-19.6 17.8-.6.5-16.2 14.7-34.6 31.3-18.4 16.7-37.7 34.2-42.8 38.9-5.1 4.6-11.1 10.1-13.4 12.1-2.2 2-5.3 4.7-6.8 6.1-1.5 1.4-6.6 6.1-11.5 10.5-4.8 4.4-10 9.1-11.5 10.5-1.5 1.4-6.5 5.9-11.1 10s-9 8.2-9.9 9c-.9.8-5.7 5.3-10.8 9.9l-9.2 8.4 11.2 8c6.2 4.4 18.1 12.4 26.3 17.8 8.3 5.4 15.5 10.3 16.2 10.9.7.5 1.4 1 1.7 1 .2 0 5.9 3.4 12.5 7.5s14.2 8.6 16.8 10c2.6 1.5 6.4 3.6 8.3 4.7 9.5 5.6 38 20.7 55.2 29.1 17.4 8.6 63.2 29.7 64.4 29.7.3 0 2.4.9 4.7 1.9 4.1 1.8 42.2 17.2 52.2 21 24.3 9.3 43.9 16.1 83 28.8 21.8 7 61 18.3 72.5 20.8.8.2 9.6 2.4 19.5 4.8 9.9 2.5 19.4 4.8 21 5.1 4.7 1 6.1 1.3 21 4.5 7.7 1.6 15.4 3.2 17 3.5 1.7.3 4.1.8 5.5 1.1 7.5 1.6 40 7.3 48.5 8.5 4.4.7 8.9 1.4 10 1.6 3.6.8 8.1 1.5 11.6 1.8 1.9.2 5 .6 6.9 1 1.9.3 5.8.8 8.5 1.1 2.8.3 5.7.8 6.5 1 .8.2 4.4.6 8 1 3.6.4 7.9.8 9.5 1 1.7.2 5.7.7 9 1 3.3.4 7.1.8 8.5 1 1.4.2 5.6.7 9.3 1 3.7.3 8.2.7 10 1 1.8.2 7.3.7 12.2 1 5 .4 10.8.8 13 1 2.2.2 8.5.6 14 1s12.3.8 15 1c36.1 2.6 147.7 2.5 165.5 0 1.4-.2 7-.7 12.5-1 5.5-.4 11.4-.8 13-1 1.7-.1 6.8-.6 11.5-1s9.2-.9 10-1c.8-.2 4.4-.6 8-1 9-.9 12.9-1.3 17-1.9 1.9-.3 8.9-1.3 15.5-2.1 6.6-.9 15.6-2.2 20-3 4.4-.7 9.9-1.6 12.3-2 2.4-.3 7.8-1.2 12-2s9.1-1.7 10.7-2c1.7-.3 4.1-.8 5.5-1.1 3.8-.9 7.2-1.6 14.5-3 2.5-.4 25.8-5.6 32-7 1.1-.3 3.1-.7 4.4-1 4.5-.9 39.6-10.4 48.1-13 32.5-9.8 75.1-24.8 75-26.3 0-.3-2.2-2.2-4.8-4.1-2.6-1.9-4.9-3.7-5.2-4-.3-.3-6.6-5.1-14-10.7-7.4-5.7-18-13.7-23.5-18-5.5-4.2-18.5-14.2-29-22.2-10.4-8-19.2-14.8-19.5-15.1-.3-.3-3-2.3-6-4.5s-5.7-4.2-6-4.5c-.3-.3-3.4-2.8-7-5.5s-6.7-5.2-7-5.5c-.3-.3-5.2-4.1-11-8.4-15-11.3-26.3-19.9-27.6-21.1-.7-.6-12.1-9.3-25.4-19.5-13.3-10.2-34.4-26.3-46.9-35.9-12.4-9.6-27.3-21.1-33.2-25.5-5.8-4.5-17.8-13.7-26.8-20.6-9-6.9-27.6-21.2-41.5-31.8-13.8-10.6-30-23.1-36.1-27.7-6-4.7-18.6-14.4-28-21.5-9.3-7.2-18.5-14.3-20.4-15.8-1.8-1.5-4-3.1-4.9-3.6-.8-.5-2.4-1.7-3.6-2.7-1.2-.9-13.6-10.5-27.5-21.3-25.3-19.4-26.4-20-35.1-21.1-4.3-.6-17.2-2.8-28.5-5-7.7-1.5-37.3-9-49-12.5-64-19.1-143.4-57.5-196.5-94.9-15.2-10.8-34.2-25.8-42.8-33.9-.7-.6-1.5-1.2-1.7-1.2-.1 0-2.7 2.1-5.6 4.7z"/></svg>